<svg width="32" height="32" viewBox="0 0 32 32" fill="none" xmlns="http://www.w3.org/2000/svg">
<path d="M6.66663 17.3334H22.48L17.64 23.1467C17.4136 23.419 17.3048 23.77 17.3373 24.1226C17.3698 24.4752 17.541 24.8004 17.8133 25.0267C18.0856 25.253 18.4366 25.3619 18.7892 25.3294C19.1418 25.2969 19.467 25.1256 19.6933 24.8534L26.36 16.8534C26.4048 16.7897 26.4449 16.7229 26.48 16.6534C26.48 16.5867 26.48 16.5467 26.5733 16.48C26.6337 16.3271 26.6654 16.1644 26.6666 16C26.6654 15.8356 26.6337 15.6729 26.5733 15.52C26.5733 15.4534 26.5733 15.4134 26.48 15.3467C26.4449 15.2772 26.4048 15.2103 26.36 15.1467L19.6933 7.14669C19.5679 6.99618 19.4109 6.87514 19.2335 6.79218C19.0561 6.70921 18.8625 6.66637 18.6666 6.66669C18.3551 6.66608 18.0532 6.77458 17.8133 6.97335C17.6783 7.08529 17.5667 7.22275 17.4849 7.37788C17.4031 7.53301 17.3527 7.70275 17.3366 7.87739C17.3205 8.05203 17.339 8.22812 17.391 8.39559C17.4431 8.56306 17.5277 8.71862 17.64 8.85335L22.48 14.6667H6.66663C6.31301 14.6667 5.97387 14.8072 5.72382 15.0572C5.47377 15.3073 5.3333 15.6464 5.3333 16C5.3333 16.3536 5.47377 16.6928 5.72382 16.9428C5.97387 17.1929 6.31301 17.3334 6.66663 17.3334Z" fill="#F2F2F2"/>
</svg>
