<svg width="36" height="36" viewBox="0 0 36 36" fill="none" xmlns="http://www.w3.org/2000/svg">
<path d="M15.5 1.44338C17.047 0.550211 18.953 0.550212 20.5 1.44338L31.0885 7.55662C32.6355 8.44979 33.5885 10.1004 33.5885 11.8868V24.1132C33.5885 25.8996 32.6355 27.5502 31.0885 28.4434L20.5 34.5566C18.953 35.4498 17.047 35.4498 15.5 34.5566L4.91154 28.4434C3.36454 27.5502 2.41154 25.8996 2.41154 24.1132V11.8868C2.41154 10.1004 3.36454 8.44979 4.91154 7.55662L15.5 1.44338Z" fill="#156963"/>
<path d="M16.2994 22.072C15.9634 22.072 15.6954 21.976 15.4954 21.784C15.3034 21.584 15.2074 21.316 15.2074 20.98V14.56C15.2074 14.232 15.2954 13.98 15.4714 13.804C15.6474 13.628 15.8994 13.54 16.2274 13.54H19.2994C20.2354 13.54 20.9634 13.78 21.4834 14.26C22.0034 14.732 22.2634 15.392 22.2634 16.24C22.2634 17.08 21.9994 17.74 21.4714 18.22C20.9514 18.7 20.2274 18.94 19.2994 18.94H17.4154V20.98C17.4154 21.316 17.3154 21.584 17.1154 21.784C16.9154 21.976 16.6434 22.072 16.2994 22.072ZM18.9994 17.284C19.4074 17.284 19.7074 17.2 19.8994 17.032C20.0994 16.864 20.1994 16.604 20.1994 16.252C20.1994 15.556 19.7994 15.208 18.9994 15.208H17.4154V17.284H18.9994Z" fill="white"/>
</svg>
